# xmcd
#
# Track frame offsets:
#	150
#	17220
#	35140
#	58413
#	79070
#	95531
#	111951
#	127825
#	148759
#	165860
#	182602
#	199299
#	213645
#	230176
#	249415
#	265331
#	281212
#	304165
#	323507
#
# Disc length: 4547 seconds
#
# Revision: 0
# Processed by: cddbd v1.5.1PL0 Copyright (c) Steve Scherf et al.
# Submitted via: dBpowerAMP V4.0
#
DISCID=1e11c113
DTITLE=Franco de Vita - Grandes Exitos
DYEAR=1900
DGENRE=Ballad
TTITLE0=Te Amo
TTITLE1=Un Buen Perdedor
TTITLE2=Louis
TTITLE3=No Basta
TTITLE4=Solo me Importas Tu
TTITLE5=Somos Tres
TTITLE6=No Hay Cielo
TTITLE7=Traigo Una Pena
TTITLE8=Lluvia Pasajera
TTITLE9=Ya lo he Vivido
TTITLE10=Porque te Escondes
TTITLE11=Lo Que Espero de ti
TTITLE12=Como Parte de mi
TTITLE13=No Hace Falta Decirlo
TTITLE14=Ana
TTITLE15=Y Aqui Esta Otravez
TTITLE16=Esto es America
TTITLE17=Sera
TTITLE18=Mi Amigo
EXTD=Escandon
EXTT0=
EXTT1=
EXTT2=
EXTT3=
EXTT4=
EXTT5=
EXTT6=
EXTT7=
EXTT8=
EXTT9=
EXTT10=
EXTT11=
EXTT12=
EXTT13=
EXTT14=
EXTT15=
EXTT16=
EXTT17=
EXTT18=
PLAYORDER=
